<?xml version="1.0" standalone="no"?>
<!DOCTYPE svg PUBLIC "-//W3C//DTD SVG 20010904//EN"
 "http://www.w3.org/TR/2001/REC-SVG-20010904/DTD/svg10.dtd">
<svg version="1.0" xmlns="http://www.w3.org/2000/svg"
 width="1200.000000pt" height="1200.000000pt" viewBox="0 0 1200.000000 1200.000000"
 preserveAspectRatio="xMidYMid meet">

<g transform="translate(0.000000,1200.000000) scale(0.100000,-0.100000)"
fill="#000000" stroke="none">
<path d="M5830 11994 c-1254 -40 -2432 -451 -3425 -1196 -553 -415 -1043 -937
-1418 -1509 -566 -865 -888 -1813 -968 -2859 -15 -199 -15 -661 0 -860 64
-834 278 -1594 652 -2318 315 -611 715 -1139 1234 -1629 814 -769 1869 -1307
2966 -1512 401 -75 714 -104 1134 -103 582 0 1066 66 1612 217 2005 558 3600
2152 4158 4158 150 542 218 1042 218 1617 0 575 -68 1075 -218 1617 -585 2102
-2301 3740 -4430 4227 -476 109 -1037 165 -1515 150z m1620 -3369 l0 -554
-392 -3 -393 -3 -52 -29 c-29 -16 -64 -46 -78 -66 -52 -75 -55 -104 -55 -487
l0 -353 501 0 501 0 -6 -47 c-6 -45 -96 -1056 -96 -1075 0 -4 -202 -8 -450 -8
l-450 0 0 -1590 0 -1590 -665 0 -665 0 0 1590 0 1590 -315 0 -315 0 0 565 0
565 314 0 315 0 4 478 c3 449 5 483 26 577 119 534 435 857 939 960 141 28
231 32 790 34 l542 1 0 -555z"/>
</g>
</svg>
