<?xml version="1.0" standalone="no"?>
<!DOCTYPE svg PUBLIC "-//W3C//DTD SVG 20010904//EN"
 "http://www.w3.org/TR/2001/REC-SVG-20010904/DTD/svg10.dtd">
<svg version="1.0" xmlns="http://www.w3.org/2000/svg"
 width="452.000000pt" height="452.000000pt" viewBox="0 0 452.000000 452.000000"
 preserveAspectRatio="xMidYMid meet">

<g transform="translate(0.000000,452.000000) scale(0.100000,-0.100000)"
fill="#000000" stroke="none">
<path d="M2016 4124 c-323 -44 -615 -162 -876 -355 -112 -82 -285 -252 -370
-364 -73 -95 -172 -253 -168 -267 3 -9 600 -448 608 -447 3 0 24 39 48 87 51
105 108 183 204 281 393 398 1018 444 1472 107 l79 -58 265 265 265 265 -78
63 c-237 196 -534 340 -820 399 -199 41 -438 50 -629 24z"/>
<path d="M2260 2260 l0 -370 530 0 c493 0 530 -1 530 -17 0 -32 -89 -200 -148
-279 -32 -43 -96 -114 -141 -158 l-83 -78 23 -23 c13 -12 142 -122 287 -244
l263 -223 35 27 c19 14 69 65 111 113 326 372 490 838 469 1327 -3 83 -12 182
-19 220 l-12 70 -922 3 -923 2 0 -370z"/>
</g>
</svg>
