<?xml version="1.0" standalone="no"?>
<!DOCTYPE svg PUBLIC "-//W3C//DTD SVG 20010904//EN"
 "http://www.w3.org/TR/2001/REC-SVG-20010904/DTD/svg10.dtd">
<svg version="1.0" xmlns="http://www.w3.org/2000/svg"
 width="512.000000pt" height="512.000000pt" viewBox="0 0 512.000000 512.000000"
 preserveAspectRatio="xMidYMid meet">

<g transform="translate(0.000000,512.000000) scale(0.100000,-0.100000)"
fill="#000000" stroke="none">
<path d="M2355 4183 c-700 -96 -1247 -602 -1396 -1291 -23 -106 -37 -396 -25
-496 l7 -56 420 0 419 0 0 294 c0 161 5 317 10 346 23 120 108 239 215 300 96
55 142 60 555 60 408 0 457 -5 552 -57 64 -35 153 -130 183 -196 39 -85 45
-142 45 -453 l0 -294 419 0 419 0 8 67 c11 111 -2 377 -26 486 -143 671 -671
1172 -1350 1282 -88 14 -374 19 -455 8z"/>
<path d="M2163 3219 c-105 -20 -189 -84 -235 -177 -22 -46 -23 -55 -26 -374
l-3 -328 159 0 160 0 -27 63 c-22 52 -26 77 -26 157 0 86 3 101 32 162 44 93
100 151 191 196 72 35 81 37 172 37 91 0 100 -2 172 -37 91 -45 147 -103 191
-196 29 -61 32 -76 32 -162 0 -80 -4 -105 -26 -157 l-27 -63 160 0 159 0 -3
328 c-3 319 -4 328 -26 374 -48 96 -129 157 -237 177 -69 13 -728 13 -792 0z
m894 -199 c18 -36 -4 -65 -48 -65 -27 0 -35 5 -43 27 -21 59 63 94 91 38z"/>
<path d="M2488 2836 c-207 -57 -282 -312 -138 -466 l28 -30 182 0 181 0 29 32
c105 114 94 305 -22 404 -72 60 -175 84 -260 60z"/>
</g>
</svg>
